<svg width="38" height="36" viewBox="0 0 38 36" fill="none" xmlns="http://www.w3.org/2000/svg">
<path d="M12.2729 8.47998C12.2729 7.9277 12.7207 7.47998 13.2729 7.47998V5.47998C11.6161 5.47998 10.2729 6.82313 10.2729 8.47998H12.2729ZM12.2729 27.52V8.47998H10.2729V27.52H12.2729ZM13.273 28.52C12.7207 28.52 12.2729 28.0723 12.2729 27.52H10.2729C10.2729 29.1768 11.6161 30.52 13.273 30.52V28.52ZM24.3034 28.52H13.273V30.52H24.3034V28.52ZM25.3034 27.52C25.3034 28.0723 24.8557 28.52 24.3034 28.52V30.52C25.9602 30.52 27.3034 29.1768 27.3034 27.52H25.3034ZM25.3034 8.47998V27.52H27.3034V8.47998H25.3034ZM24.3034 7.47998C24.8557 7.47998 25.3034 7.9277 25.3034 8.47998H27.3034C27.3034 6.82313 25.9602 5.47998 24.3034 5.47998V7.47998ZM13.2729 7.47998H24.3034V5.47998H13.2729V7.47998ZM19.2912 25.2C19.2912 25.403 19.1068 25.64 18.7882 25.64V27.64C20.1297 27.64 21.2912 26.5875 21.2912 25.2H19.2912ZM18.7882 24.76C19.1068 24.76 19.2912 24.9969 19.2912 25.2H21.2912C21.2912 23.8125 20.1297 22.76 18.7882 22.76V24.76ZM18.2851 25.2C18.2851 24.9969 18.4695 24.76 18.7882 24.76V22.76C17.4466 22.76 16.2851 23.8125 16.2851 25.2H18.2851ZM18.7882 25.64C18.4695 25.64 18.2851 25.403 18.2851 25.2H16.2851C16.2851 26.5875 17.4466 27.64 18.7882 27.64V25.64Z" fill="#AA7F00"/>
</svg>
